<?xml version="1.0" encoding="UTF-8"?>
<svg xmlns="http://www.w3.org/2000/svg" xmlns:xlink="http://www.w3.org/1999/xlink" width="32px" height="18px" viewBox="0 0 31 18" version="1.1">
<g id="surface1">
<path style=" stroke:none;fill-rule:nonzero;fill:rgb(33.333334%,45.882353%,90.588236%);fill-opacity:1;" d="M 4.792969 1.246094 C 5.257812 1.265625 5.722656 1.285156 6.203125 1.304688 C 6.953125 1.335938 6.953125 1.335938 7.722656 1.367188 C 8.253906 1.390625 8.78125 1.414062 9.324219 1.4375 C 10.121094 1.472656 10.121094 1.472656 10.933594 1.503906 C 12.25 1.558594 13.5625 1.617188 14.878906 1.675781 C 14.933594 2.667969 14.933594 2.667969 14.878906 3.765625 C 14.054688 4.605469 14.054688 4.605469 13.164062 4.699219 C 12.804688 4.695312 12.445312 4.691406 12.074219 4.6875 C 11.683594 4.683594 11.296875 4.679688 10.894531 4.679688 C 10.488281 4.671875 10.082031 4.664062 9.660156 4.65625 C 9.25 4.652344 8.839844 4.648438 8.417969 4.644531 C 7.402344 4.636719 6.386719 4.621094 5.375 4.605469 C 5.238281 5.019531 5.101562 5.433594 4.960938 5.859375 C 4.6875 5.859375 4.414062 5.859375 4.132812 5.859375 C 4.132812 6.273438 4.132812 6.6875 4.132812 7.117188 C 6.863281 7.117188 9.589844 7.117188 12.398438 7.117188 C 12.671875 7.945312 12.945312 8.773438 13.226562 9.628906 C 13.089844 9.902344 12.953125 10.179688 12.8125 10.464844 C 9.949219 10.464844 7.085938 10.464844 4.132812 10.464844 C 4.40625 11.019531 4.679688 11.570312 4.960938 12.140625 C 5.097656 12.414062 5.234375 12.691406 5.375 12.976562 C 8.511719 12.839844 11.648438 12.699219 14.878906 12.558594 C 14.878906 13.664062 14.878906 14.769531 14.878906 15.90625 C 13.132812 15.917969 11.382812 15.925781 9.636719 15.933594 C 9.140625 15.9375 8.644531 15.941406 8.136719 15.945312 C 7.65625 15.945312 7.179688 15.945312 6.6875 15.949219 C 6.246094 15.949219 5.808594 15.953125 5.355469 15.953125 C 4.210938 15.910156 3.179688 15.75 2.066406 15.488281 C 2.015625 15.230469 1.964844 14.96875 1.910156 14.703125 C 1.707031 13.734375 1.707031 13.734375 0.828125 12.976562 C 0.679688 11.472656 0.789062 9.960938 0.851562 8.449219 C 0.859375 8.03125 0.863281 7.613281 0.871094 7.183594 C 1.003906 3.738281 1.003906 3.738281 2.273438 2.453125 C 2.613281 2.195312 2.953125 1.941406 3.308594 1.675781 C 3.71875 1.253906 3.71875 1.253906 4.792969 1.246094 Z M 4.792969 1.246094 "/>
<path style=" stroke:none;fill-rule:nonzero;fill:rgb(34.901962%,48.627451%,98.431373%);fill-opacity:1;" d="M 17.679688 1.207031 C 18.179688 1.210938 18.679688 1.210938 19.195312 1.214844 C 19.734375 1.214844 20.273438 1.21875 20.832031 1.21875 C 21.40625 1.222656 21.980469 1.226562 22.550781 1.230469 C 23.128906 1.230469 23.703125 1.234375 24.28125 1.234375 C 25.691406 1.242188 27.105469 1.246094 28.519531 1.253906 C 28.894531 2.65625 28.976562 3.882812 28.960938 5.335938 C 28.957031 5.75 28.953125 6.160156 28.949219 6.585938 C 28.941406 6.898438 28.9375 7.210938 28.933594 7.535156 C 28.113281 7.949219 28.113281 7.949219 27.28125 8.371094 C 27.28125 8.648438 27.28125 8.925781 27.28125 9.210938 C 27.824219 9.347656 28.371094 9.484375 28.933594 9.628906 C 28.96875 10.4375 28.992188 11.25 29.011719 12.0625 C 29.03125 12.738281 29.03125 12.738281 29.054688 13.429688 C 28.933594 14.652344 28.933594 14.652344 28.472656 15.347656 C 27.328125 16.167969 26.429688 16.046875 25.039062 16.03125 C 24.523438 16.027344 24.003906 16.023438 23.46875 16.015625 C 22.929688 16.007812 22.386719 15.996094 21.828125 15.984375 C 21.277344 15.980469 20.726562 15.972656 20.171875 15.96875 C 18.820312 15.953125 17.472656 15.933594 16.121094 15.90625 C 16.109375 13.886719 16.101562 11.867188 16.097656 9.847656 C 16.09375 9.160156 16.09375 8.472656 16.089844 7.785156 C 16.082031 6.800781 16.082031 5.816406 16.078125 4.828125 C 16.078125 4.519531 16.074219 4.210938 16.074219 3.890625 C 16.074219 3.152344 16.09375 2.414062 16.121094 1.675781 C 16.535156 1.253906 16.535156 1.253906 17.679688 1.207031 Z M 18.1875 3.765625 C 18.1875 7.082031 18.1875 10.398438 18.1875 13.8125 C 21.050781 13.8125 23.914062 13.8125 26.867188 13.8125 C 27.089844 11.769531 27.089844 11.769531 26.039062 10.726562 C 24.980469 9.316406 25.078125 8.425781 25.214844 6.699219 C 25.757812 6.558594 26.304688 6.421875 26.867188 6.277344 C 26.867188 5.449219 26.867188 4.621094 26.867188 3.765625 C 24.003906 3.765625 21.136719 3.765625 18.1875 3.765625 Z M 18.1875 3.765625 "/>
<path style=" stroke:none;fill-rule:nonzero;fill:rgb(24.705882%,32.549021%,60.000002%);fill-opacity:1;" d="M 27.691406 1.253906 C 27.964844 1.394531 28.238281 1.53125 28.519531 1.675781 C 28.953125 2.992188 28.976562 3.929688 28.960938 5.3125 C 28.957031 5.726562 28.953125 6.144531 28.949219 6.570312 C 28.941406 6.890625 28.9375 7.207031 28.933594 7.535156 C 28.113281 7.949219 28.113281 7.949219 27.28125 8.371094 C 27.28125 8.648438 27.28125 8.925781 27.28125 9.210938 C 27.824219 9.347656 28.371094 9.484375 28.933594 9.628906 C 28.933594 11.285156 28.933594 12.941406 28.933594 14.652344 C 28.660156 14.652344 28.386719 14.652344 28.105469 14.652344 C 27.96875 14.238281 27.832031 13.824219 27.691406 13.394531 C 27.421875 13.671875 27.148438 13.949219 26.867188 14.234375 C 25.9375 14.328125 25.9375 14.328125 24.796875 14.3125 C 24.246094 14.3125 24.246094 14.3125 23.683594 14.308594 C 23.21875 14.300781 22.75 14.292969 22.269531 14.285156 C 20.785156 14.269531 19.300781 14.25 17.773438 14.234375 C 17.773438 10.640625 17.773438 7.050781 17.773438 3.347656 C 20.910156 3.210938 24.046875 3.074219 27.28125 2.929688 C 27.417969 2.378906 27.554688 1.824219 27.691406 1.253906 Z M 18.1875 3.765625 C 18.1875 7.082031 18.1875 10.398438 18.1875 13.8125 C 21.050781 13.8125 23.914062 13.8125 26.867188 13.8125 C 27.089844 11.769531 27.089844 11.769531 26.039062 10.726562 C 24.980469 9.316406 25.078125 8.425781 25.214844 6.699219 C 25.757812 6.558594 26.304688 6.421875 26.867188 6.277344 C 26.867188 5.449219 26.867188 4.621094 26.867188 3.765625 C 24.003906 3.765625 21.136719 3.765625 18.1875 3.765625 Z M 18.1875 3.765625 "/>
<path style=" stroke:none;fill-rule:nonzero;fill:rgb(35.294119%,48.235294%,96.078432%);fill-opacity:1;" d="M 4.132812 7.535156 C 6.996094 7.535156 9.863281 7.535156 12.8125 7.535156 C 12.949219 8.5 13.085938 9.46875 13.226562 10.464844 C 10.226562 10.328125 7.226562 10.1875 4.132812 10.046875 C 4.542969 9.769531 4.953125 9.492188 5.375 9.210938 C 4.964844 8.65625 4.554688 8.105469 4.132812 7.535156 Z M 4.132812 7.535156 "/>
<path style=" stroke:none;fill-rule:nonzero;fill:rgb(36.078432%,44.705883%,74.901962%);fill-opacity:1;" d="M 17.492188 1.207031 C 17.90625 1.210938 18.316406 1.210938 18.742188 1.214844 C 19.191406 1.214844 19.636719 1.21875 20.097656 1.21875 C 20.800781 1.222656 20.800781 1.222656 21.519531 1.230469 C 22.226562 1.234375 22.226562 1.234375 22.945312 1.234375 C 24.117188 1.242188 25.285156 1.246094 26.453125 1.253906 C 26.453125 1.53125 26.453125 1.808594 26.453125 2.09375 C 23.316406 2.09375 20.179688 2.09375 16.945312 2.09375 C 16.945312 6.511719 16.945312 10.933594 16.945312 15.488281 C 16.539062 15.695312 16.539062 15.695312 16.121094 15.90625 C 16.109375 13.886719 16.101562 11.867188 16.097656 9.847656 C 16.09375 9.160156 16.09375 8.472656 16.089844 7.785156 C 16.082031 6.800781 16.082031 5.816406 16.078125 4.828125 C 16.078125 4.519531 16.074219 4.210938 16.074219 3.890625 C 16.074219 3.152344 16.09375 2.414062 16.121094 1.675781 C 16.535156 1.253906 16.535156 1.253906 17.492188 1.207031 Z M 17.492188 1.207031 "/>
<path style=" stroke:none;fill-rule:nonzero;fill:rgb(37.64706%,51.372552%,98.823529%);fill-opacity:1;" d="M 27.28125 11.300781 C 27.417969 11.300781 27.554688 11.300781 27.691406 11.300781 C 27.855469 11.910156 28.007812 12.523438 28.160156 13.132812 C 28.289062 13.644531 28.289062 13.644531 28.417969 14.164062 C 28.453125 14.460938 28.484375 14.761719 28.519531 15.070312 C 27.691406 15.90625 27.691406 15.90625 26.574219 16.003906 C 26.113281 15.996094 25.648438 15.992188 25.171875 15.988281 C 24.421875 15.984375 24.421875 15.984375 23.652344 15.980469 C 23.128906 15.972656 22.601562 15.964844 22.0625 15.960938 C 21.53125 15.957031 21.003906 15.953125 20.460938 15.949219 C 19.152344 15.9375 17.84375 15.925781 16.535156 15.90625 C 17.078125 15.628906 17.625 15.355469 18.1875 15.070312 C 18.050781 14.792969 17.914062 14.515625 17.773438 14.234375 C 20.773438 14.09375 23.773438 13.957031 26.867188 13.8125 C 27.003906 12.984375 27.140625 12.15625 27.28125 11.300781 Z M 27.28125 11.300781 "/>
<path style=" stroke:none;fill-rule:nonzero;fill:rgb(28.235295%,37.254903%,72.549021%);fill-opacity:1;" d="M 4.199219 9.953125 C 4.554688 9.957031 4.914062 9.960938 5.285156 9.964844 C 5.675781 9.96875 6.0625 9.96875 6.464844 9.972656 C 6.871094 9.980469 7.277344 9.988281 7.699219 9.996094 C 8.109375 9.996094 8.519531 10 8.941406 10.003906 C 9.957031 10.015625 10.972656 10.03125 11.988281 10.046875 C 11.988281 10.183594 11.988281 10.324219 11.988281 10.464844 C 9.394531 10.464844 6.804688 10.464844 4.132812 10.464844 C 4.40625 11.019531 4.679688 11.570312 4.960938 12.140625 C 5.097656 12.414062 5.234375 12.691406 5.375 12.976562 C 4.964844 13.113281 4.554688 13.253906 4.132812 13.394531 C 4.40625 13.535156 4.679688 13.671875 4.960938 13.8125 C 4.960938 14.226562 4.960938 14.644531 4.960938 15.070312 C 4.003906 15.207031 3.050781 15.347656 2.066406 15.488281 C 1.546875 13.691406 1.765625 12.597656 2.480469 10.882812 C 3.308594 10.046875 3.308594 10.046875 4.199219 9.953125 Z M 4.199219 9.953125 "/>
<path style=" stroke:none;fill-rule:nonzero;fill:rgb(28.235295%,35.294119%,60.000002%);fill-opacity:1;" d="M 20.253906 6.699219 C 20.492188 6.765625 20.730469 6.835938 20.976562 6.90625 C 22.09375 7.15625 22.875 6.976562 23.972656 6.699219 C 23.835938 7.941406 23.699219 9.183594 23.558594 10.464844 C 23.015625 10.464844 22.46875 10.464844 21.90625 10.464844 C 21.351562 10.589844 20.800781 10.726562 20.253906 10.882812 C 19.878906 9.597656 19.769531 8.457031 19.839844 7.117188 C 19.976562 6.976562 20.113281 6.839844 20.253906 6.699219 Z M 20.253906 6.699219 "/>
<path style=" stroke:none;fill-rule:nonzero;fill:rgb(33.725491%,44.705883%,86.274511%);fill-opacity:1;" d="M 28.105469 2.929688 C 28.378906 2.929688 28.652344 2.929688 28.933594 2.929688 C 28.933594 4.449219 28.933594 5.96875 28.933594 7.535156 C 28.113281 7.949219 28.113281 7.949219 27.28125 8.371094 C 27.007812 8.648438 26.734375 8.925781 26.453125 9.210938 C 26.066406 7.949219 26.023438 7.589844 26.453125 6.277344 C 26.726562 6.277344 27 6.277344 27.28125 6.277344 C 27.253906 5.683594 27.253906 5.683594 27.226562 5.074219 C 27.28125 3.765625 27.28125 3.765625 28.105469 2.929688 Z M 28.105469 2.929688 "/>
<path style=" stroke:none;fill-rule:nonzero;fill:rgb(38.82353%,49.019608%,92.156863%);fill-opacity:1;" d="M 27.28125 11.300781 C 27.417969 11.300781 27.554688 11.300781 27.691406 11.300781 C 27.964844 12.546875 28.238281 13.789062 28.519531 15.070312 C 27.703125 15.484375 27.703125 15.484375 26.867188 15.90625 C 26.730469 15.628906 26.59375 15.355469 26.453125 15.070312 C 23.589844 14.929688 20.722656 14.792969 17.773438 14.652344 C 17.773438 14.511719 17.773438 14.375 17.773438 14.234375 C 20.773438 14.09375 23.773438 13.957031 26.867188 13.8125 C 27.003906 12.984375 27.140625 12.15625 27.28125 11.300781 Z M 27.28125 11.300781 "/>
<path style=" stroke:none;fill-rule:nonzero;fill:rgb(28.627452%,37.254903%,67.843139%);fill-opacity:1;" d="M 25.214844 6.277344 C 25.757812 6.554688 26.304688 6.832031 26.867188 7.117188 C 26.730469 7.53125 26.59375 7.945312 26.453125 8.371094 C 26.53125 8.648438 26.605469 8.925781 26.6875 9.210938 C 26.746094 9.484375 26.804688 9.761719 26.867188 10.046875 C 26.457031 10.667969 26.457031 10.667969 26.039062 11.300781 C 24.980469 10.183594 24.804688 9.667969 24.695312 8.085938 C 24.800781 6.699219 24.800781 6.699219 25.214844 6.277344 Z M 25.214844 6.277344 "/>
<path style=" stroke:none;fill-rule:nonzero;fill:rgb(31.764707%,40.000001%,72.941178%);fill-opacity:1;" d="M 20.253906 6.699219 C 20.664062 6.835938 21.070312 6.972656 21.492188 7.117188 C 21.492188 8.222656 21.492188 9.328125 21.492188 10.464844 C 20.949219 10.464844 20.402344 10.464844 19.839844 10.464844 C 19.800781 7.890625 19.800781 7.890625 19.839844 7.117188 C 19.976562 6.976562 20.113281 6.839844 20.253906 6.699219 Z M 20.253906 6.699219 "/>
</g>
</svg>
